<svg xmlns="http://www.w3.org/2000/svg" viewBox="0 0 248.362 86.691"><path fill="#FFF" d="M154.624 84.798l-1.24-1.238 1.24-1.238 1.238 1.238z"/><path fill="#FFF" d="M142.4 83.436h12.117v.245H142.4zM90.427 83.557l1.238-1.238 1.238 1.237-1.238 1.238z"/><path fill="#FFF" d="M91.773 83.436h12.116v.245H91.772z"/><g fill="#FFF"><path d="M113.12 80.246h1.214v3.98c0 1.857-1.144 2.465-2.438 2.465-1.295 0-2.44-.607-2.44-2.465v-3.98h1.216v4.033c0 1.03.405 1.39 1.224 1.39s1.223-.36 1.223-1.39v-4.032zM124.553 81.937c-.184-.493-.563-.828-1.136-.828-.528 0-.906.21-.906.704 0 1.09 3.276.862 3.276 2.923 0 1.303-.82 1.954-2.227 1.954-1.04 0-2.018-.58-2.38-1.504l1.005-.44c.29.598.67.994 1.382.994.607 0 1.074-.23 1.074-.845 0-1.25-3.273-1.004-3.273-2.958 0-1.136.95-1.78 2.05-1.78 1.022 0 1.867.512 2.246 1.436l-1.11.344zM133.98 80.237h1.514l1.805 6.365h-1.207l-.353-1.373h-2.007l-.38 1.372h-1.205l1.832-6.365zm.017 3.988h1.48l-.714-2.764h-.018l-.748 2.765zM77.64 69c-.112-.295-.34-.496-.682-.496-.318 0-.545.127-.545.423 0 .655 1.965.518 1.965 1.754 0 .783-.49 1.174-1.336 1.174-.624 0-1.21-.35-1.426-.904l.602-.264c.174.36.402.597.83.597.364 0 .643-.137.643-.507 0-.75-1.963-.602-1.963-1.775 0-.68.57-1.066 1.23-1.066.613 0 1.12.306 1.347.86l-.665.207zM84.14 67.98h.91l1.082 3.82h-.724l-.212-.824h-1.204l-.227.824h-.723l1.098-3.82zm.01 2.394h.888l-.428-1.66h-.01l-.45 1.66zM90.933 71.8v-3.814h.73v3.2h1.658v.614M100.123 67.98v.614h-1V71.8h-.727v-3.206h-1v-.613M110.89 71.8v-3.814h.73v3.2h1.658v.614M118.903 67.98h.908l1.083 3.82h-.722l-.21-.824h-1.205l-.227.824h-.725l1.1-3.82zm.01 2.394h.888l-.428-1.66h-.01l-.45 1.66zM125.695 71.8v-3.814h.73v1.696l1.272-1.696h.84l-1.083 1.432 1.258 2.382h-.81l-.945-1.812-.533.666V71.8M133.57 71.8v-3.814h2.525v.613H134.3v.907h1.304v.613H134.3v1.067h1.852v.613M148.965 69.096c-.106-.322-.333-.55-.692-.55-.487 0-.782.455-.782 1.347-.01.893.255 1.348.804 1.348.327 0 .528-.116.745-.565l.675.18c-.227.66-.724 1-1.42 1-.973 0-1.533-.715-1.533-1.962 0-1.246.56-1.96 1.532-1.96.73 0 1.15.33 1.332 1.005l-.66.158zM154.664 67.987h.73V71.8h-.73zM163.06 67.98v.614h-.998V71.8h-.728v-3.206h-1v-.613M168.955 69.497l.655-1.51h.76l-1.05 2.292v1.52h-.73v-1.52l-1.05-2.294h.76M0 54.347v-29.55h7.285c3.138 0 5.45.67 6.938 2.006 1.486 1.337 2.23 3.574 2.23 6.712 0 1.583-.184 2.926-.552 4.03-.368 1.106-.927 2.007-1.677 2.703-.75.696-1.706 1.2-2.865 1.514-1.16.314-2.518.47-4.073.47h-2.21v12.115H0zm5.075-16.29H7.04c.818 0 1.507-.067 2.067-.204.558-.136 1.01-.38 1.35-.736.34-.355.58-.825.716-1.412.137-.587.205-1.316.205-2.19 0-.873-.068-1.603-.205-2.19-.136-.586-.375-1.05-.716-1.39-.34-.342-.792-.588-1.35-.738-.56-.15-1.25-.225-2.067-.225H5.075v9.086zM25.54 54.347h-5.076v-29.55h7.12c2.84 0 4.98.67 6.427 2.006 1.447 1.337 2.17 3.574 2.17 6.712 0 1.2-.102 2.224-.307 3.07-.204.846-.477 1.562-.818 2.148-.342.587-.723 1.058-1.146 1.412-.425.355-.854.628-1.29.82l4.297 13.382H31.76L28.158 42.11c-.327.055-.73.09-1.207.102-.477.014-.947.02-1.41.02v12.115zm0-16.29h1.8c.682 0 1.262-.067 1.74-.204.476-.136.865-.38 1.166-.736.3-.355.518-.825.655-1.412s.205-1.316.205-2.19c0-1.746-.286-2.94-.86-3.58-.572-.642-1.54-.963-2.905-.963h-1.8v9.086zM40.93 31.96c0-1.036.156-2.02.47-2.947.313-.927.79-1.732 1.432-2.414.64-.683 1.446-1.222 2.415-1.618.968-.395 2.12-.594 3.458-.594 1.337 0 2.49.2 3.46.594.967.396 1.772.935 2.414 1.617.64.68 1.117 1.486 1.43 2.413.314.928.472 1.91.472 2.947v15.226c0 1.037-.158 2.02-.47 2.947-.315.927-.793 1.733-1.433 2.414-.643.683-1.448 1.222-2.416 1.617-.97.395-2.122.594-3.46.594-1.336 0-2.49-.2-3.457-.594-.97-.395-1.774-.934-2.415-1.617-.64-.68-1.12-1.487-1.432-2.414-.314-.928-.47-1.91-.47-2.947V31.96zm5.074 15.103c0 1.12.19 1.944.573 2.476s1.09.797 2.128.797c1.037 0 1.746-.266 2.13-.798.38-.533.572-1.358.572-2.477v-14.98c0-1.118-.192-1.944-.573-2.476-.383-.532-1.092-.798-2.13-.798-1.036 0-1.745.265-2.127.797-.382.532-.573 1.358-.573 2.476v14.98zM59.06 50.337h1.064c.982 0 1.67-.205 2.067-.614.396-.41.595-1.023.595-1.842V24.8h5.075v23.656c0 .956-.11 1.815-.328 2.58-.218.763-.593 1.425-1.125 1.984-.532.56-1.263.99-2.19 1.29-.928.3-2.087.45-3.48.45H59.06v-4.42zM72.77 54.348v-29.55h13.59v4.42h-8.514v7.613h6.55v4.42h-6.55v8.678h9.086v4.42M101.174 34.66v-2.29c0-1.256-.246-2.163-.737-2.723-.49-.56-1.064-.84-1.72-.84-1.036 0-1.745.267-2.127.8-.382.53-.573 1.357-.573 2.475v14.98c0 1.12.19 1.944.573 2.477.382.53 1.09.797 2.128.797.928 0 1.57-.26 1.924-.778.354-.52.532-1.256.532-2.21v-3.562h5.075v3.397c0 1.037-.158 2.02-.472 2.947-.314.928-.777 1.733-1.39 2.415s-1.4 1.22-2.355 1.616c-.955.396-2.06.594-3.315.594-1.337 0-2.49-.198-3.458-.594-.97-.395-1.774-.934-2.415-1.616s-1.12-1.487-1.432-2.415c-.314-.927-.47-1.91-.47-2.947V31.96c0-1.037.156-2.02.47-2.947.313-.927.79-1.733 1.432-2.415.64-.682 1.446-1.22 2.415-1.617.968-.394 2.12-.592 3.458-.592 1.255 0 2.36.22 3.315.655.955.437 1.74 1.023 2.354 1.76.614.736 1.077 1.596 1.39 2.578.315.984.472 2.02.472 3.112v2.17h-5.076zM114.354 29.218h-4.912v-4.42h14.898v4.42h-4.912v25.13h-5.074M144.568 32.083c-.055-.627-.17-1.152-.348-1.576-.178-.422-.396-.757-.655-1.003-.26-.245-.54-.422-.84-.532-.3-.108-.586-.163-.858-.163-.82 0-1.447.25-1.883.756-.437.505-.655 1.22-.655 2.15 0 .845.25 1.622.756 2.332.505.71 1.14 1.42 1.904 2.128.763.71 1.596 1.426 2.496 2.15.9.722 1.733 1.52 2.497 2.393.763.872 1.398 1.834 1.903 2.884.505 1.05.757 2.245.757 3.582 0 1.227-.198 2.312-.593 3.253-.396.94-.942 1.733-1.637 2.373-.696.642-1.542 1.126-2.538 1.453-.996.328-2.08.49-3.254.49s-2.223-.217-3.15-.653c-.928-.437-1.713-1.03-2.354-1.78-.64-.75-1.14-1.618-1.494-2.6-.355-.982-.56-2.032-.613-3.15l4.828-.697c.11 1.5.436 2.62.982 3.356.546.737 1.228 1.105 2.047 1.105.873 0 1.582-.23 2.128-.696.546-.462.82-1.13.82-2.004 0-.982-.254-1.855-.76-2.62-.504-.763-1.138-1.5-1.902-2.21s-1.596-1.418-2.496-2.128c-.9-.71-1.733-1.487-2.497-2.333-.764-.845-1.4-1.8-1.903-2.865-.505-1.064-.757-2.305-.757-3.724 0-2.374.68-4.196 2.046-5.464 1.364-1.27 3.3-1.904 5.812-1.904 1.037 0 1.964.178 2.783.533.82.355 1.522.854 2.11 1.494.585.642 1.063 1.4 1.43 2.272.37.874.608 1.828.718 2.865l-4.83.533zM153.49 24.797h5.075v22.306c0 2.156.9 3.233 2.7 3.233 1.802 0 2.703-1.077 2.703-3.233V24.797h5.075v22.1c0 2.566-.69 4.518-2.067 5.854-1.378 1.338-3.28 2.007-5.71 2.007s-4.332-.67-5.71-2.006c-1.377-1.335-2.066-3.287-2.066-5.852v-22.1zM173.954 54.348v-29.55h4.707l6.18 16.903h.083V24.8h4.584v29.55h-4.42l-6.467-18.46h-.082v18.46M194.42 24.797h7.53c2.646 0 4.645.724 5.996 2.17 1.35 1.446 2.026 3.697 2.026 6.753v11.705c0 3.056-.676 5.308-2.026 6.753-1.35 1.447-3.35 2.17-5.996 2.17h-7.53v-29.55zm5.074 25.376h1.76c1.364 0 2.312-.3 2.844-.9.533-.6.8-1.68.8-3.234V33.105c0-1.556-.267-2.633-.8-3.234-.532-.6-1.48-.9-2.844-.9h-1.76v21.2zM217.83 54.348h-4.912l5.444-29.55h6.303l5.443 29.55h-4.91l-.9-6.55h-5.568l-.9 6.55zm1.637-10.97h4.093l-2.006-12.687h-.082l-2.005 12.69zM242.223 54.348h-5.076v-12.28l-6.14-17.27h5.158l3.56 11.255h.082l3.397-11.255h5.157l-6.137 17.27M42.523 9.173V5.36h.73v1.52h1.468V5.36h.73v3.813h-.73V7.536h-1.468v1.637M51.38 5.353h.91l1.082 3.82h-.723l-.213-.825h-1.204l-.227.824h-.724l1.1-3.82zm.012 2.393h.887l-.43-1.66h-.01l-.448 1.66zM58.19 9.173V5.36h.76l1.5 2.598h.01v-2.6h.687v3.815h-.702l-1.558-2.715h-.012v2.715M66.308 5.36h1.262c1.01 0 1.706.56 1.71 1.906-.004 1.347-.7 1.907-1.71 1.907h-1.262V5.36zm.73 3.2h.484c.835 0 1.03-.613 1.03-1.294 0-.682-.195-1.294-1.03-1.294h-.485V8.56zM74.166 9.173V5.36h1.025l.735 2.662h.01l.74-2.663h1.036v3.813h-.633v-3h-.01l-.856 3h-.554l-.845-3h-.01v3M83.628 5.353h.908l1.082 3.82h-.722l-.212-.825H83.48l-.227.824h-.725l1.1-3.82zm.01 2.393h.888l-.43-1.66h-.01l-.448 1.66zM90.42 5.36h1.26c1.01 0 1.708.56 1.713 1.906-.005 1.347-.702 1.907-1.712 1.907h-1.26V5.36zm.728 3.2h.487c.834 0 1.03-.613 1.03-1.294 0-.682-.196-1.294-1.03-1.294h-.487V8.56zM98.295 9.173V5.36h2.524v.612h-1.797v.908h1.306v.613h-1.307V8.56h1.854v.613M141.392 9.173V5.36h2.43v.612h-1.7v.908h1.272v.613h-1.273v1.68M150.877 5.36h.73v2.387c0 1.114-.687 1.48-1.464 1.48-.777 0-1.463-.366-1.463-1.48V5.36h.73v2.418c0 .62.242.835.733.835s.734-.216.734-.835v-2.42zM156.782 9.173V5.36h1.52c.868 0 1.217.5 1.222 1.13.005.47-.232.85-.698.98l.84 1.703h-.808l-.72-1.554h-.627v1.553h-.728zm.73-2.145h.538c.57 0 .744-.18.744-.54s-.216-.538-.617-.538h-.666v1.078zM164.64 9.173V5.36h.76l1.502 2.598h.01v-2.6h.687v3.815h-.703l-1.558-2.715h-.013v2.715M172.86 5.36h.73v3.813h-.73zM181.257 5.354v.613h-1v3.206h-.727V5.967h-1v-.613M188.323 5.36h.73v2.387c0 1.114-.687 1.48-1.464 1.48-.778 0-1.464-.366-1.464-1.48V5.36h.73v2.418c0 .62.242.835.733.835s.733-.216.733-.835v-2.42zM194.23 9.173V5.36h1.52c.867 0 1.216.5 1.22 1.13.006.47-.23.85-.697.98l.84 1.703h-.808l-.72-1.554h-.627v1.553h-.73zm.728-2.145h.54c.57 0 .743-.18.743-.54s-.215-.538-.616-.538h-.666v1.078zM202.104 9.173V5.36h2.525v.612h-1.797v.908h1.305v.613h-1.305V8.56h1.854v.613M116.19 14.28c.142-.047.962-.408 1.12-.566.157-.158 12.033-11.996 12.084-12.047.05-.05.403.132.564.166.16.033.34-.172.38-.286.042-.114.048-.536-.442-1.022-.49-.487-.915-.62-1.076-.46-.16.162-.312.314-.205.5s.22.44.22.44-11.79 11.753-12.022 11.985c-.23.232-.624 1.29-.624 1.29"/><path d="M130.412 14.223c-.046-.143-.407-.963-.565-1.12L117.8 1.017c-.05-.05.132-.403.166-.564.033-.16-.172-.34-.286-.38-.114-.042-.536-.048-1.022.442-.487.49-.62.915-.46 1.076.162.16.314.312.5.205.186-.107.44-.22.44-.22s11.753 11.79 11.985 12.022c.232.23 1.29.623 1.29.623"/></g></svg>