<svg xmlns="http://www.w3.org/2000/svg" width="179.891" height="188.767" viewBox="0 0 179.891 188.767"><path fill="#F3E9D6" d="M89.945 188.767c-3.307 0-6.6-.64-9.27-1.805-1.11-.483-27.488-12.1-48.514-33.464-20.966-21.313-29.378-40.613-29.726-41.424-1.87-4.35-2.812-10.676-2.292-15.383l6.84-62.647c.724-6.626 5.368-13.39 11.294-16.45l1.214-.627L82.263.906C84.373.327 87.123 0 89.945 0c2.82 0 5.613.34 7.868.955l62.593 16.012 1.215.628c5.928 3.062 10.57 9.83 11.29 16.457l6.84 62.655c.518 4.693-.424 11.014-2.29 15.37-.35.81-8.763 20.11-29.728 41.42-21.03 21.362-47.413 32.983-48.526 33.468-2.663 1.16-5.953 1.802-9.26 1.802"/><path fill="#F3E9D6" d="M88.995 184.764c-2.77 0-5.493-.522-7.67-1.47-1.082-.472-26.785-11.798-47.26-32.604-20.458-20.795-28.567-39.41-28.902-40.194-1.598-3.718-2.437-9.34-1.992-13.365l6.842-62.652c.577-5.283 4.425-10.888 9.15-13.328l.81-.418L82.305 4.784c1.816-.497 4.214-.78 6.69-.78 2.474 0 4.894.29 6.814.813l62.212 15.915.81.42c4.727 2.44 8.575 8.05 9.148 13.332l6.842 62.658c.442 4.014-.396 9.633-1.993 13.356-.336.783-8.452 19.408-28.902 40.19-20.49 20.816-46.185 32.135-47.27 32.606-2.17.947-4.892 1.47-7.663 1.47"/><path fill="none" stroke="#8D7C4F" stroke-miterlimit="10" d="M88.995 184.764c-2.77 0-5.493-.522-7.67-1.47-1.082-.472-26.785-11.798-47.26-32.604-20.458-20.795-28.567-39.41-28.902-40.194-1.598-3.718-2.437-9.34-1.992-13.365l6.842-62.652c.577-5.283 4.425-10.888 9.15-13.328l.81-.418L82.305 4.784c1.816-.497 4.214-.78 6.69-.78 2.474 0 4.894.29 6.814.813l62.212 15.915.81.42c4.727 2.44 8.575 8.05 9.148 13.332l6.842 62.658c.442 4.014-.396 9.633-1.993 13.356-.336.783-8.452 19.408-28.902 40.19-20.49 20.816-46.185 32.135-47.27 32.606-2.17.947-4.892 1.47-7.663 1.47z"/><path fill="#8D7C4F" d="M88.46 180.76c-2.23 0-4.385-.404-6.07-1.138-1.053-.458-26.062-11.475-46.007-31.74-19.927-20.257-27.75-38.208-28.074-38.963-1.337-3.11-2.065-7.99-1.694-11.35l6.842-62.658c.434-3.98 3.447-8.367 7.007-10.206l.405-.21L82.763 8.662c1.524-.415 3.57-.653 5.698-.653 2.13 0 4.176.238 5.76.67l61.835 15.82.404.21c3.562 1.84 6.574 6.23 7.006 10.208l6.842 62.66c.37 3.355-.357 8.233-1.692 11.345-.322.753-8.145 18.705-28.075 38.96-19.95 20.267-44.957 31.284-46.012 31.743-1.68.733-3.836 1.137-6.067 1.137"/><path fill="#1E1E1E" d="M166.328 98.01l-6.843-62.664c-.29-2.666-2.48-5.852-4.864-7.084L93.166 12.54c-2.586-.707-6.82-.707-9.41 0L22.302 28.262c-2.385 1.232-4.575 4.418-4.866 7.084l-6.84 62.664c-.296 2.667.334 6.87 1.39 9.332 0 0 7.622 17.78 27.25 37.73 19.63 19.947 44.753 30.88 44.753 30.88 2.46 1.073 6.48 1.073 8.94 0 0 0 25.123-10.933 44.756-30.88 19.63-19.95 27.25-37.73 27.25-37.73 1.056-2.46 1.686-6.664 1.392-9.332"/><path fill="#F3E9D6" d="M46.64 86.58v21.183H56v-3.168h-5.72V86.58M65.478 86.286c-3.814 0-5.575 2.436-5.575 5.428v10.915c0 2.992 1.76 5.427 5.575 5.427 3.814 0 5.575-2.435 5.575-5.428V91.713c0-2.992-1.76-5.428-5.575-5.428m1.936 16.255c0 1.585-.47 2.348-1.936 2.348s-1.937-.763-1.937-2.347V91.804c0-1.585.47-2.348 1.938-2.348s1.936.763 1.936 2.348v10.738zM87.22 102.63v-2.436h-3.64v2.553c0 1.38-.44 2.14-1.76 2.14-1.467 0-1.936-.76-1.936-2.346V91.804c0-1.585.47-2.348 1.937-2.348.94 0 1.76.763 1.76 2.552v1.644h3.64v-1.554c0-3.17-1.76-5.81-5.4-5.81-3.814 0-5.575 2.436-5.575 5.428v10.915c0 2.992 1.76 5.427 5.576 5.427 3.64 0 5.4-2.435 5.4-5.428M99.983 107.764h3.52L99.6 86.58h-4.517l-3.903 21.184h3.522l.645-4.694h3.99l.646 4.694zM95.875 99.9l1.438-9.095h.06l1.436 9.096h-2.935zM107.112 86.58v21.183h9.36v-3.168h-5.722V86.58M125.07 104.888c-1.175 0-2.026-1.056-2.172-3.2l-3.462.5c.146 3.17 2.083 5.87 5.457 5.87 3.404 0 5.75-1.937 5.75-5.43 0-5.75-7.393-7.48-7.393-11.09 0-1.32.645-2.083 1.82-2.083.82 0 1.79.528 1.936 2.348l3.462-.383c-.323-2.992-2.083-5.134-5.047-5.134-3.578 0-5.632 1.907-5.632 5.28 0 6.074 7.394 7.19 7.394 11.386 0 1.26-.85 1.936-2.113 1.936"/><path fill-rule="evenodd" clip-rule="evenodd" fill="#F3E9D6" d="M46.33 115.124h21.51v2.79H46.33z"/><path fill="#F3E9D6" d="M77.93 53.56h23.295c.83 0 1.507-.79 1.507-1.764 0-.972-.677-1.763-1.507-1.763H77.93c-.83 0-1.505.79-1.505 1.763 0 .973.675 1.765 1.505 1.765M76.172 58.462h9.1c1.04-1.307 2.623-2.078 4.306-2.078 1.68 0 3.262.77 4.303 2.078h9.103c.83 0 1.506-.79 1.506-1.764s-.677-1.765-1.507-1.765h-26.81c-.83 0-1.507.792-1.507 1.765s.676 1.764 1.506 1.764M74.415 68.264h9.662v-3.53h-9.662c-.83 0-1.506.792-1.506 1.765s.675 1.764 1.505 1.764M95.078 64.735v3.53h9.66c.83 0 1.507-.793 1.507-1.766 0-.974-.676-1.765-1.506-1.765h-9.662zM75.294 63.362h8.783v-1.477c0-.71.135-1.405.394-2.05h-9.176c-.83 0-1.506.79-1.506 1.763 0 .973.676 1.764 1.506 1.764M94.68 59.834c.263.65.398 1.345.398 2.06v1.468h8.783c.83 0 1.506-.79 1.506-1.764 0-.972-.675-1.764-1.505-1.764h-9.18zM86.717 38.86h5.72c.83 0 1.506-.792 1.506-1.765s-.675-1.765-1.505-1.765h-5.72c-.83 0-1.507.792-1.507 1.765s.677 1.764 1.507 1.764M83.788 43.76h11.58c.83 0 1.504-.792 1.504-1.764 0-.973-.675-1.764-1.505-1.764h-11.58c-.83 0-1.505.79-1.505 1.764 0 .972.676 1.764 1.506 1.764M80.858 48.66h17.438c.83 0 1.505-.79 1.505-1.764 0-.972-.674-1.764-1.504-1.764H80.858c-.83 0-1.506.792-1.506 1.764 0 .973.676 1.764 1.506 1.764M91.538 72.448c.427-.74.418-1.64-.025-2.41 0 0-1.53-2.656-2.012-3.49-.262.456-1.573 2.725-2.012 3.49-.444.77-.454 1.67-.026 2.41.42.726 1.182 1.16 2.038 1.16.856 0 1.618-.433 2.038-1.16M52.803 57.69h-1.925v-1.838h1.387v-.936h-1.387v-1.613h1.804v-.936h-2.88v6.26h3M55.71 57.778c-.346 0-.597-.312-.64-.946l-1.024.147c.043.937.615 1.734 1.613 1.734 1.005 0 1.698-.572 1.698-1.604 0-1.7-2.185-2.212-2.185-3.278 0-.39.19-.616.538-.616.244 0 .53.156.573.694l1.023-.112c-.095-.886-.615-1.518-1.49-1.518-1.06 0-1.666.564-1.666 1.56 0 1.795 2.185 2.125 2.185 3.365 0 .373-.25.573-.624.573M59.468 58.627h1.076v-5.324h1.04v-.936h-3.156v.936h1.04M116.002 57.742h-1.9c1.683-2.36 1.995-3.087 1.995-4.076 0-.728-.572-1.387-1.456-1.387-1.005 0-1.595.71-1.595 1.63v.293h1.023v-.424c0-.383.174-.652.52-.652.296 0 .486.218.486.71 0 .92-.728 1.997-2.064 3.947v.84h2.992v-.883zM118.9 58.714c1.075 0 1.526-.538 1.526-1.717v-3c0-1.18-.45-1.717-1.526-1.717-1.075 0-1.526.537-1.526 1.716v3c0 1.18.45 1.718 1.526 1.718m.503-1.448c0 .407-.182.598-.503.598s-.503-.19-.503-.598v-3.54c0-.406.182-.597.503-.597s.503.19.503.597M123.247 58.713c1.075 0 1.526-.538 1.526-1.716v-3c0-1.18-.45-1.718-1.526-1.718-1.075 0-1.527.536-1.527 1.716v3c0 1.18.452 1.717 1.527 1.717m-.503-4.986c0-.408.182-.598.503-.598.32 0 .503.19.503.597v3.54c0 .405-.183.597-.503.597s-.503-.192-.503-.598v-3.54zM129.04 57.742h-1.898c1.682-2.36 1.994-3.087 1.994-4.076 0-.728-.572-1.387-1.456-1.387-1.006 0-1.596.71-1.596 1.63v.293h1.023v-.424c0-.383.174-.652.52-.652.296 0 .486.218.486.71 0 .92-.728 1.997-2.064 3.947v.84h2.99v-.883zM64.16 132.445c0-.37.18-.583.51-.583.23 0 .5.15.54.657l.97-.108c-.09-.837-.584-1.436-1.413-1.436-1 0-1.576.534-1.576 1.477 0 1.7 2.07 2.012 2.07 3.185 0 .353-.238.54-.59.54-.33 0-.567-.293-.61-.892l-.967.14c.04.885.583 1.64 1.527 1.64.952 0 1.608-.54 1.608-1.518 0-1.61-2.068-2.093-2.068-3.103M68.33 131.058l-1.09 5.927h.985l.18-1.313h1.117l.18 1.313h.985l-1.09-5.927H68.33zm.625 1.182h.017l.402 2.545h-.82M72.88 131.058h-1.018v5.927h2.618v-.887h-1.6M75.197 131.945h.985v5.04H77.2v-5.04h.985v-.888h-2.988M82.84 131.058h-1.017v5.927h2.618v-.887h-1.6M87.66 131.058h-1.263l-1.092 5.927h.985l.18-1.314h1.117l.18 1.315h.985l-1.092-5.927zm-1.042 3.727l.402-2.545h.016l.403 2.545h-.822zM90.945 134.883l.36-.657h.018l.83 2.758h1.033l-1.24-3.718 1.1-2.21h-1.018l-1.067 2.194h-.015v-2.193h-1.018v5.927h1.018M95.272 134.358h1.313v-.886h-1.313v-1.527h1.707v-.887h-2.726v5.927h2.84v-.887h-1.822M102.546 130.976c-1.067 0-1.56.68-1.56 1.52v3.052c0 .837.493 1.52 1.56 1.52 1.018 0 1.51-.683 1.51-1.52v-.682h-1.018v.715c0 .387-.123.6-.492.6-.41 0-.542-.213-.542-.657v-3.004c0-.444.132-.658.542-.658.263 0 .492.214.492.714v.46h1.018v-.434c0-.888-.492-1.626-1.51-1.626M105.864 131.058h1.018v5.927h-1.018zM108.245 131.945h.985v5.04h1.018v-5.04h.985v-.888h-2.988M113.82 133.316h-.017l-.714-2.258h-1.035l1.23 3.464v2.463h1.02v-2.463l1.23-3.464H114.5M90.954 153.438l-2.49-2.49 2.49-2.487 2.488 2.49zM77.495 113.317c-1.93 0-2.82.972-2.82 2.168v4.358c0 1.195.89 2.168 2.82 2.168 1.93 0 2.82-.972 2.82-2.167v-4.358c0-1.196-.89-2.168-2.82-2.168m-.98 2.203c0-.632.237-.937.98-.937.742 0 .98.305.98.937v4.288c0 .633-.238.938-.98.938-.743 0-.98-.305-.98-.938M88.877 121.894v-8.46h-1.663v4.84h-.03l-2.24-4.84h-1.708v8.46h1.662v-5.284h.03l2.345 5.284M96.444 120.63H93.55v-7.195h-1.84v8.46h4.734M101.222 121.894v-3.515l2.227-4.945h-1.872l-1.232 3.222h-.03l-1.29-3.222h-1.872l2.227 4.944v3.514"/><path fill-rule="evenodd" clip-rule="evenodd" fill="#F3E9D6" d="M110.32 115.123h21.51v2.79h-21.51zM45.193 78.237h36.1v2.392h-36.1zM95.882 78.237h36.026v2.392H95.882z"/></svg>