<svg xmlns="http://www.w3.org/2000/svg" viewBox="0 0 23.94 19"><defs><style>.cls-1{fill:#e0dbcf;}</style></defs><title>Asset 1Slider</title><g id="Layer_2" data-name="Layer 2"><g id="Layer_1-2" data-name="Layer 1"><polygon class="cls-1" points="3.72 0 2.22 0 2.22 17.5 0 17.5 0 19 5.94 19 5.94 17.5 3.72 17.5 3.72 0"/><polygon class="cls-1" points="12.72 0 11.22 0 11.22 8.58 9 8.58 9 10.08 11.22 10.08 11.22 18.63 12.72 18.63 12.72 10.08 14.94 10.08 14.94 8.58 12.72 8.58 12.72 0"/><polygon class="cls-1" points="23.94 2.83 21.72 2.83 21.72 0 20.22 0 20.22 2.83 18 2.83 18 4.33 20.22 4.33 20.22 18.63 21.72 18.63 21.72 4.33 23.94 4.33 23.94 2.83"/></g></g></svg>