
<svg xmlns="http://www.w3.org/2000/svg" width="315.53" height="300.128" viewBox="0 0 315.53 300.128"><g fill="none" stroke="#8f7c4f" stroke-width="4" stroke-linecap="round" stroke-linejoin="round" stroke-miterlimit="10"><path d="M94.722 212.052c-7.965-8.13-14.37-17.794-18.73-28.508M157.765 238.548c-24.697 0-47.025-10.145-63.043-26.495M220.64 212.224c-16.007 16.25-38.265 26.323-62.875 26.323M239.797 182.9c-4.394 11.047-10.955 20.997-19.158 29.325M78.66 111.134c14.43-29.09 44.43-49.086 79.105-49.086 34.895 0 65.06 20.254 79.38 49.648M157.765 165.352v132.776M157.765 2v109.695M143.094 164.574L26.738 281.324M289.688 16.932l-93.384 94.826M172.95 165.155l123.083 123.082M26.607 18.81l92.016 92.017M9.858 111.88h293.237v24.752H9.858zM26.738 147.685h30.024M131.063 150.603h88.932M285.98 154.018h-30.023M69.636 174.685h17.146M9.858 124.257h100.174"/><path d="M286.085 136.632v27.942h-143.66M26.607 149.685v-13.053"/><path d="M142.425 164.574H26.607v-14.89M60.043 165.035L2 223.632h10.213l90.69-58.673M255.657 165.207l57.873 58.425h-10.213l-90.083-58.28M31.25 194.103h9.537M228.97 174.685h14.71M278.478 196.538h7.356M157.518 200.805c-13.866 0-26.42-5.622-35.504-14.71M157.518 100.402c11.653 0 22.378 3.97 30.897 10.632M148.17 22.685h19.465M148.17 263.185h19.465M193.2 185.916c-9.098 9.194-21.724 14.89-35.68 14.89M277.718 119.382h23.942M239.797 126.3h61.862"/></g></svg>