<svg xmlns="http://www.w3.org/2000/svg" viewBox="0 0 54.85 18.262"><g fill="#8f7c4f"><path d="M2.297 9.286c-.126-.335-.384-.563-.773-.563-.36 0-.618.144-.618.48 0 .743 2.23.587 2.23 1.99 0 .888-.557 1.33-1.517 1.33C.91 12.524.245 12.13 0 11.5l.684-.3c.197.407.456.677.94.677.415 0 .733-.155.733-.575 0-.852-2.23-.684-2.23-2.016 0-.773.647-1.21 1.397-1.21.695 0 1.27.347 1.528.977l-.755.233zM5.1 12.465v-4.33h.828v3.635H7.81v.695M11.83 9.395c-.12-.366-.377-.624-.785-.624-.55 0-.887.517-.887 1.53-.012 1.014.288 1.53.91 1.53.373 0 .6-.132.847-.642l.768.204c-.258.75-.822 1.133-1.614 1.133-1.104 0-1.74-.81-1.74-2.225s.636-2.224 1.74-2.224c.827 0 1.306.372 1.51 1.14l-.75.18zM43.9 8.135h.827v2.71c0 1.267-.78 1.68-1.66 1.68-.882 0-1.66-.413-1.66-1.68v-2.71h.826v2.747c0 .7.275.947.834.947.558 0 .833-.247.833-.948V8.135zM48.93 9.286c-.127-.335-.385-.563-.774-.563-.36 0-.618.144-.618.48 0 .743 2.23.587 2.23 1.99 0 .888-.557 1.33-1.517 1.33-.706 0-1.372-.394-1.618-1.024l.684-.3c.198.407.456.677.94.677.415 0 .734-.155.734-.575 0-.852-2.232-.684-2.232-2.016 0-.773.648-1.21 1.398-1.21.695 0 1.27.347 1.53.977l-.757.233zM52.59 8.13h1.032l1.228 4.335h-.82l-.24-.935h-1.37l-.256.935h-.822L52.59 8.13zm.012 2.716h1.007l-.487-1.883h-.01l-.51 1.883zM28.538 3.63V0H19.84v18.262h14.21V3.632"/></g></svg>