<svg xmlns="http://www.w3.org/2000/svg" width="30.969" height="35.04" viewBox="0 0 30.969 35.04">
  <defs>
    <style>
      .cls-1 {
        fill: #8f7c4f;
        fill-rule: evenodd;
      }
    </style>
  </defs>
  <path class="cls-1" d="M699.629,1909.53H721.28a1.626,1.626,0,0,0,0-3.22H699.629A1.626,1.626,0,0,0,699.629,1909.53ZM698,1914.02h8.457a5.163,5.163,0,0,1,8,0h8.46a1.632,1.632,0,0,0,0-3.23H698A1.632,1.632,0,0,0,698,1914.02Zm-1.633,8.96h8.98v-3.22h-8.98A1.626,1.626,0,0,0,696.362,1922.98Zm19.206-3.22v3.22h8.979a1.626,1.626,0,0,0,0-3.22h-8.979Zm-18.389-1.26h8.163v-1.35a4.958,4.958,0,0,1,.367-1.88h-8.53A1.632,1.632,0,0,0,697.179,1918.5Zm18.02-3.23a4.991,4.991,0,0,1,.369,1.89v1.34h8.163a1.632,1.632,0,0,0,0-3.23H715.2Zm-7.4-19.18h5.317a1.632,1.632,0,0,0,0-3.23H707.8A1.632,1.632,0,0,0,707.8,1896.09Zm-2.722,4.48h10.762a1.632,1.632,0,0,0,0-3.23H705.074A1.632,1.632,0,0,0,705.074,1900.57Zm-2.723,4.48h16.207a1.632,1.632,0,0,0,0-3.23H702.351A1.632,1.632,0,0,0,702.351,1905.05Zm9.926,21.76a2.144,2.144,0,0,0-.023-2.2s-1.421-2.43-1.87-3.2c-0.245.42-1.463,2.5-1.871,3.2A2.18,2.18,0,0,0,712.277,1926.81Z" transform="translate(-694.969 -1892.84)"/>
</svg>
