<svg xmlns="http://www.w3.org/2000/svg" viewBox="0 0 73.919 78.007">
  <g fill="#8f7c4f">
  <path d="M8.19 30.285l-6.616-2.403.593-1.63c.51-1.403 1.286-1.857 2.697-1.345s1.715 1.36 1.206 2.762l-.18.494 2.713.985-.413 1.135zm-3.234-2.46l.16-.44c.27-.743.123-1.055-.665-1.34s-1.1-.142-1.37.6l-.16.44 2.036.74z"/>
  <path d="M11.205 23.453l-.632 1.03-6.002-3.68.888-1.446c.71-1.155 1.56-1.445 2.842-.66.963.59 1.125 1.205 1.068 1.65l3.254.794-.643 1.05-2.935-.793c-.064.143-.19.364-.3.547l2.46 1.51zm-3.31-2.03l.226-.365c.342-.557.262-.892-.453-1.33-.715-.44-1.05-.36-1.39.198l-.226.366 1.846 1.132z"/>
  <path d="M10.177 15.63c-.726-.68-.915-1.66-.047-2.584.867-.924 1.857-.797 2.582-.117l2.645 2.48c.725.682.916 1.663.048 2.587s-1.858.796-2.583.116l-2.645-2.482zm3.45 1.582c.384.36.676.42 1.01.064.333-.356.255-.643-.128-1.003l-2.604-2.442c-.384-.36-.675-.42-1.01-.063-.333.355-.255.643.13 1.003l2.602 2.442z"/>
  <path d="M17.598 14.47l.203-.153c.376-.28.392-.536.157-.848l-3.297-4.4.967-.726 3.38 4.51c.538.717.612 1.417-.457 2.22l-.32.24-.632-.845z"/>
  <path d="M22.052 12.517L18.84 6.253l2.88-1.478.48.937-1.805.926.828 1.613 1.39-.71.48.937-1.39.712.943 1.838 1.926-.988.48.938-3 1.54z"/>
  <path d="M28.356 4.956l-.144-.526c-.157-.574-.486-.747-.788-.665-.47.128-.554.414-.415.922l.937 3.443c.138.508.354.71.825.583.424-.115.497-.397.377-.84l-.224-.818 1.167-.318.212.78c.262.96-.09 1.895-1.257 2.213-1.223.333-2-.294-2.26-1.254l-.955-3.5c-.262-.96.09-1.893 1.313-2.227 1.166-.318 1.962.374 2.238 1.39l.136.5-1.164.316z"/>
  <path d="M33.68 2.757l-1.168.076-.07-1.05 3.543-.232.07 1.052-1.17.076.39 5.974-1.205.08-.39-5.975z"/>
  <path d="M45.7 4.567c.104-.598-.164-.85-.428-.917-.378-.098-.65.095-.76.52-.3 1.16 1.935 2.334 1.455 4.184-.29 1.123-1.208 1.55-2.302 1.268-1.086-.282-1.484-1.312-1.268-2.344l1.156.128c-.13.702.054 1.112.432 1.21.405.105.735-.04.84-.447.35-1.35-1.936-2.325-1.43-4.28.28-1.084 1.102-1.526 2.252-1.228.955.247 1.342 1.084 1.197 2.073L45.7 4.567z"/>
  <path d="M50.824 4.504l1.082.538-2.366 4.76c-.23.46-.16.78.233.975s.69.06.92-.402l2.365-4.76 1.083.54-2.344 4.714c-.537 1.082-1.462 1.363-2.492.85-1.03-.51-1.363-1.417-.825-2.5l2.344-4.716z"/>
  <path d="M53.18 13.848L57.58 8.35l.875.7-1.365 4.065.016.012 2.516-3.145.852.682-4.396 5.498-.822-.657 1.543-4.397-.015-.012-2.747 3.434-.854-.682z"/>
  <path d="M63.335 13.493l1.142 1.384c.793.964.688 1.91-.426 2.827l-2.15 1.772c-1.114.917-2.063.84-2.856-.124l-1.14-1.384 5.43-4.475zm-3.897 4.776l.267.322c.408.496.74.516 1.312.043l2.377-1.96c.572-.47.617-.798.21-1.295l-.268-.323-3.898 3.212z"/>
  <path d="M62.01 23.605l-.555-1.03 6.812-2.198.712 1.32-5.582 4.482-.556-1.03 1.272-.93-.63-1.167-1.474.552zm2.485-.897l.463.86 2.434-1.856-.01-.017-2.887 1.013z"/>
  <path d="M64.71 29.755l-.39-1.146 2.77-.94 3.43-2.702.394 1.164-2.268 1.663.006.018 2.8-.092.394 1.164-4.366-.066-2.77.937z"/>
  <path d="M18.5 61.632l-5.115 4.836-.724-.766 3.998-3.777-.013-.015-4.747 2.984-.402-.426 3.247-4.57-.013-.014-3.997 3.777-.724-.765 5.115-4.836 1.092 1.153-2.4 3.45.013.015 3.58-2.203 1.09 1.157z"/>
  <path d="M20.256 71.33l-1.04-.538 4.386-5.658 1.334.69-2.082 6.85-1.04-.54.527-1.482-1.177-.608-.907 1.285zm1.547-2.143l.866.447.962-2.904-.017-.01-1.812 2.467z"/>
  <path d="M29.835 74.886l1.01-6.968 1.11.16.88 4.198.018.003.578-3.987 1.082.157-1.01 6.967-1.043-.15-.895-4.573-.02-.003-.63 4.353-1.08-.157z"/>
  <path d="M40.825 69.19l-1.15.206-.187-1.037 3.493-.626.187 1.037-1.15.207 1.053 5.893-1.19.213-1.055-5.893z"/>
  <path d="M52.13 71.683l-1.063.58-3.37-6.182 1.49-.81c1.19-.65 2.072-.477 2.792.843.54.992.374 1.604.103 1.964l2.426 2.31-1.08.588-2.148-2.148c-.128.092-.345.222-.534.324l1.38 2.533zm-1.86-3.408l.378-.205c.574-.312.672-.644.27-1.38s-.73-.833-1.306-.52l-.376.205 1.035 1.9z"/>
  <path d="M60.865 65.22l-.8.854-4.244-5.766 1.028-1.094 6.02 3.875-.8.852-1.286-.91-.906.965.99 1.224zm-1.637-2.073l.668-.71-2.53-1.722-.014.014 1.876 2.417z"/>
  <path d="M5.135 37.59l1.947 1.947-1.947 1.947-1.947-1.947z"/>
  <path d="M51.926 47.13c-.26.047-.797.138-1.123 0-.542-.228-1.235-.453-1.926-.997-1.23-.968-3.197-3.202-3.635-4.058-.463-.907-.432-5.128-.573-6.394-.213-1.903.065-2.373-1.35-3.152-1.463-.805-4.05-.96-4.577-1.607-.527-.645-.306-1.514-.306-1.514C39.525 28.296 40 26.78 40 25.216c0-1.565-1.29-3.053-3.467-3.053s-3.45 1.488-3.45 3.052c0 1.565.485 3.08 1.573 4.19 0 0 .227.87-.3 1.516-.528.647-3.112.803-4.575 1.608-1.415.78-1.135 1.25-1.347 3.153-.14 1.266-.11 5.488-.574 6.395-.44.856-2.403 3.09-3.634 4.058-.692.544-1.385.77-1.928.997-.325.138-.86.047-1.12 0-.886-.158-2.062-.033-1.225.928 1.007 1.16 1.813.773 1.813.773s-1.27 1.565.567 3.606c1.836 2.04 3.03 2.357 5.524 2.108 2.494-.25 8.675-1.09 8.675-1.09s6.2.84 8.694 1.09c2.494.25 3.706-.068 5.543-2.108 1.835-2.04.565-3.605.565-3.605s.807.387 1.814-.772c.836-.96-.34-1.086-1.224-.928M31.9 44.025c-.08 1.14-.975 3.823-1.47 4.02-1.07.423-5.385.03-5.416 0 2.803-1.315 5.163-4.43 5.48-4.904s1.088-7.072 1.088-7.072.397 6.817.318 7.957m10.773 4.02c-.495-.197-1.39-2.88-1.47-4.02-.08-1.14.317-7.958.317-7.958s.772 6.598 1.09 7.073c.315.475 2.677 3.59 5.48 4.904-.033.032-4.348.424-5.417 0"/>
  <path d="M35.006 21.91c0-.4-.014-1.344 1.513-1.344 1.525 0 1.51.945 1.51 1.343 0 .397-.677.636-1.51.636-.837 0-1.514-.24-1.514-.637"/>
</g>
</svg>
